<svg width="27" height="15" viewBox="0 0 27 15" fill="none" xmlns="http://www.w3.org/2000/svg">
<path d="M18.3971 14.85L16.2 0H18.3868L19.4389 9.29151H19.5008L20.7283 0H22.4613L23.6991 9.33253H23.761L24.8131 0H27L24.8028 14.85H22.9151L21.6257 6.35843H21.5638L20.2744 14.85H18.3971Z" fill="black"/>
<path d="M9.44995 14.85V0H13.3512C15.4277 0 16.5226 1.45628 16.5226 3.73301C16.5226 5.3739 15.8052 6.62507 14.7733 6.97376V7.11733C15.9185 7.17887 16.875 8.55311 16.875 10.6657C16.875 13.0861 15.6668 14.85 13.6784 14.85H9.44995ZM13.0618 11.7118C13.9175 11.7118 14.3454 11.1785 14.3454 10.1735C14.3454 9.0864 13.8672 8.47106 13.0995 8.47106H11.8411V11.7118H13.0618ZM12.9108 6.03025C13.5777 6.03025 14.056 5.49696 14.056 4.55345C14.056 3.60995 13.6029 3.07666 12.9485 3.07666H11.8411V6.03025H12.9108Z" fill="black"/>
<path d="M2.63068 14.85H0L3.07764 0H6.38514L9.45 14.85H6.83209L6.28297 11.9374H3.1798L2.63068 14.85ZM3.74169 8.98384H5.72108L4.76331 3.99965H4.68669L3.74169 8.98384Z" fill="black"/>
</svg>
